<svg width="22" height="24" viewBox="0 0 22 24" fill="none" xmlns="http://www.w3.org/2000/svg"> <path d="M4.40723 2.82539C4.40723 1.81726 5.31529 1 6.43544 1H6.84109C9.26062 1 11.222 2.76528 11.222 4.94285V6.11111H8.05802C6.04174 6.11111 4.40723 4.64004 4.40723 2.82539Z" class="flits-widget-storke-brand" stroke="#000654" stroke-width="1.5" stroke-linejoin="round"/> <path d="M18.037 2.82539C18.037 1.81726 17.1289 1 16.0088 1H15.6031C13.1836 1 11.2222 2.76528 11.2222 4.94285V6.11111H14.3862C16.4024 6.11111 18.037 4.64004 18.037 2.82539Z" class="flits-widget-storke-brand" stroke="#000654" stroke-width="1.5" stroke-linejoin="round"/> <path d="M0 8.5C0 7.56539 -9.10627e-08 7.09807 0.245618 6.75C0.406523 6.52197 0.637963 6.33261 0.916667 6.20096C1.3421 6 1.91324 6 3.05556 6H18.9444C20.0867 6 20.6579 6 21.0833 6.20096C21.362 6.33261 21.5935 6.52197 21.7543 6.75C22 7.09807 22 7.56539 22 8.5C22 9.43461 22 9.90187 21.7543 10.25C21.5935 10.478 21.362 10.6674 21.0833 10.799C20.6579 11 20.0867 11 18.9444 11H3.05556C1.91324 11 1.3421 11 0.916667 10.799C0.637963 10.6674 0.406523 10.478 0.245618 10.25C-9.10627e-08 9.90187 0 9.43461 0 8.5Z" class="flits-widget-fill-brand" fill="#000654"/> <path d="M1.93701 12.0741H10.537V24H6.93701C4.17559 24 1.93701 21.7614 1.93701 19V12.0741Z" class="flits-widget-fill-brand" fill="#000654"/> <path d="M20.5073 12.0741H11.9073V24H15.5073C18.2688 24 20.5073 21.7614 20.5073 19V12.0741Z" class="flits-widget-fill-brand" fill="#000654"/> </svg>